<?xml version="1.0" encoding="UTF-8" standalone="no"?>
<svg
   xmlns:dc="http://purl.org/dc/elements/1.1/"
   xmlns:cc="http://creativecommons.org/ns#"
   xmlns:rdf="http://www.w3.org/1999/02/22-rdf-syntax-ns#"
   xmlns:svg="http://www.w3.org/2000/svg"
   xmlns="http://www.w3.org/2000/svg"
   id="svg832"
   version="1.1"
   viewBox="0 0 75 30"
   height="30mm"
   width="75mm">
  <defs
     id="defs826" />
  <metadata
     id="metadata829">
    <rdf:RDF>
      <cc:Work
         rdf:about="">
        <dc:format>image/svg+xml</dc:format>
        <dc:type
           rdf:resource="http://purl.org/dc/dcmitype/StillImage" />
        <dc:title></dc:title>
      </cc:Work>
    </rdf:RDF>
  </metadata>
  <g
     transform="translate(0,-267)"
     id="layer1">
    <path
       id="path2074"
       d="m 11.498776,275.12936 v 13.74128 h 5.693708 v -3.68918 h 6.064746 a 0.73720972,0.73720972 0 0 0 0,0.004 0.73720972,0.73720972 0 0 0 0.736906,0.73691 0.73720972,0.73720972 0 0 0 0.737423,-0.73691 0.73720972,0.73720972 0 0 0 0,-0.004 h 6.548438 v 3.68918 h 5.209501 v -13.74128 z m 12.49536,3.56516 a 1.5969294,1.5969294 0 0 1 1.596802,1.59732 1.5969294,1.5969294 0 0 1 -1.596802,1.5968 1.5969294,1.5969294 0 0 1 -1.596801,-1.5968 1.5969294,1.5969294 0 0 1 1.596801,-1.59732 z"
       style="opacity:1;fill:none;fill-opacity:1;stroke:#000000;stroke-width:0.1;stroke-miterlimit:4;stroke-dasharray:none;stroke-dashoffset:0;stroke-opacity:1" />
    <path
       style="opacity:1;fill:none;fill-opacity:1;stroke:#000000;stroke-width:0.1;stroke-miterlimit:4;stroke-dasharray:none;stroke-dashoffset:0;stroke-opacity:1"
       d="m 38.510502,275.12936 v 13.74128 h 5.693709 v -3.68918 h 6.064746 a 0.73720972,0.73720972 0 0 0 0,0.004 0.73720972,0.73720972 0 0 0 0.736906,0.73691 0.73720972,0.73720972 0 0 0 0.737422,-0.73691 0.73720972,0.73720972 0 0 0 0,-0.004 h 6.548439 v 3.68918 h 5.2095 v -13.74128 z m 12.495361,3.56516 a 1.5969294,1.5969294 0 0 1 1.596801,1.59732 1.5969294,1.5969294 0 0 1 -1.596801,1.5968 1.5969294,1.5969294 0 0 1 -1.596802,-1.5968 1.5969294,1.5969294 0 0 1 1.596802,-1.59732 z"
       id="path2092" />
  </g>
</svg>
